{"title":"Paddington.2014.BRRip.XviD.MP3-RARBG","uid":11770119,"size":1298704397,"categoryP":"video","categoryS":"hd___movies","magnet":"?xt=urn:btih:372cfb57ae210ba119737638024c4b73fd2c2bea&amp;dn=Paddington.2014.BRRip.XviD.MP3-RARBG&amp;tr=udp%3A%2F%2Ftracker.openbittorrent.com%3A80&amp;tr=udp%3A%2F%2Fopen.demonii.com%3A1337&amp;tr=udp%3A%2F%2Ftracker.coppersurfer.tk%3A6969&amp;tr=udp%3A%2F%2Fexodus.desync.com%3A6969","seeders":4,"leechers":0,"uploader":"vickey1992","files":6,"time":1427035503,"description":"\n\nMediaInfo\n\nVideo\nID : 0\nFormat : MPEG-4 Visual\nFormat profile : Simple@L5\nFormat settings, BVOP : No\nFormat settings, QPel : No\nFormat settings, GMC : No warppoints\nFormat settings, Matrix : Default (H.263)\nCodec ID : XVID\nCodec ID/Hint : XviD\nDuration : 1h 35mn\nBit rate : 1 597 Kbps\nWidth : 720 pixels\nHeight : 302 pixels\nDisplay aspect ratio : 2.40:1\nOriginal display aspect ratio : 2.40:1\nFrame rate : 23.976 fps\nColor space : YUV\nChroma subsampling : 4:2:0\nBit depth : 8 bits\nScan type : Progressive\nCompression mode : Lossy\nBits/(Pixel*Frame) : 0.306\nStream size : 1.06 GiB (88%)\nTitle : RARBG.COM - Paddington.2014.BRRip.XviD.MP3-RARBG\nWriting library : Lavc56.19.100\n\nAudio\nID : 1\nFormat : MPEG Audio\nFormat version : Version 1\nFormat profile : Layer 3\nMode : Joint stereo\nMode extension : MS Stereo\nCodec ID : 55\nCodec ID/Hint : MP3\nDuration : 1h 35mn\nBit rate mode : Constant\nBit rate : 192 Kbps\nChannel(s) : 2 channels\nSampling rate : 48.0 KHz\nCompression mode : Lossy\nStream size : 131 MiB (11%)\nAlignment : Aligned on interleaves\nInterleave, duration : 24 ms (0.58 video frame)\nInterleave, preload duration : 24 ms\nTitle : RARBG.COM - Paddington.2014.BRRip.XviD.MP3-RARBG","torrent":{"xt":"urn:btih:372cfb57ae210ba119737638024c4b73fd2c2bea","amp;dn":"Paddington.2014.BRRip.XviD.MP3-RARBG","amp;tr":["udp%3A%2F%2Ftracker.openbittorrent.com%3A80","udp%3A%2F%2Fopen.demonii.com%3A1337","udp%3A%2F%2Ftracker.coppersurfer.tk%3A6969","udp%3A%2F%2Fexodus.desync.com%3A6969"],"infoHash":"372cfb57ae210ba119737638024c4b73fd2c2bea","infoHashBuffer":{"type":"Buffer","data":[55,44,251,87,174,33,11,161,25,115,118,56,2,76,75,115,253,44,43,234]},"announce":[],"urlList":[]}}